<mxfile host="app.diagrams.net" agent="Mozilla/5.0 (Windows NT 10.0; Win64; x64) AppleWebKit/537.36 (KHTML, like Gecko) Chrome/137.0.0.0 Safari/537.36" version="27.1.4">
  <diagram name="Site Map" id="J01jwXqaV_theJAMNodA">
    <mxGraphModel dx="3026" dy="783" grid="1" gridSize="10" guides="1" tooltips="1" connect="1" arrows="1" fold="1" page="1" pageScale="1" pageWidth="1600" pageHeight="900" math="0" shadow="0">
      <root>
        <mxCell id="0" />
        <mxCell id="1" parent="0" />
        <mxCell id="yHLSnqsGGGd3KY7ET34i-1" value="Home" style="shape=rectangle;whiteSpace=wrap;html=1;rounded=1;" vertex="1" parent="1">
          <mxGeometry x="200" y="20" width="120" height="60" as="geometry" />
        </mxCell>
        <mxCell id="yHLSnqsGGGd3KY7ET34i-2" value="List" style="shape=rectangle;whiteSpace=wrap;html=1;rounded=1;" vertex="1" parent="1">
          <mxGeometry x="200" y="100" width="120" height="60" as="geometry" />
        </mxCell>
        <mxCell id="yHLSnqsGGGd3KY7ET34i-3" style="endArrow=block;" edge="1" parent="1" source="yHLSnqsGGGd3KY7ET34i-1" target="yHLSnqsGGGd3KY7ET34i-2">
          <mxGeometry relative="1" as="geometry" />
        </mxCell>
        <mxCell id="yHLSnqsGGGd3KY7ET34i-4" value="商品分類" style="shape=rectangle;whiteSpace=wrap;html=1;rounded=1;" vertex="1" parent="1">
          <mxGeometry x="-450" y="260" width="120" height="60" as="geometry" />
        </mxCell>
        <mxCell id="yHLSnqsGGGd3KY7ET34i-5" style="endArrow=block;" edge="1" parent="1" source="yHLSnqsGGGd3KY7ET34i-2" target="yHLSnqsGGGd3KY7ET34i-4">
          <mxGeometry relative="1" as="geometry" />
        </mxCell>
        <mxCell id="yHLSnqsGGGd3KY7ET34i-115" value="" style="edgeStyle=orthogonalEdgeStyle;rounded=0;orthogonalLoop=1;jettySize=auto;html=1;exitX=0.5;exitY=1;exitDx=0;exitDy=0;" edge="1" parent="1" source="yHLSnqsGGGd3KY7ET34i-4" target="yHLSnqsGGGd3KY7ET34i-6">
          <mxGeometry relative="1" as="geometry" />
        </mxCell>
        <mxCell id="yHLSnqsGGGd3KY7ET34i-6" value="商品列表" style="shape=rectangle;whiteSpace=wrap;html=1;rounded=1;" vertex="1" parent="1">
          <mxGeometry x="-450" y="370" width="120" height="60" as="geometry" />
        </mxCell>
        <mxCell id="yHLSnqsGGGd3KY7ET34i-7" style="endArrow=block;exitX=0.5;exitY=1;exitDx=0;exitDy=0;entryX=0.5;entryY=0;entryDx=0;entryDy=0;" edge="1" parent="1" source="yHLSnqsGGGd3KY7ET34i-6" target="yHLSnqsGGGd3KY7ET34i-8">
          <mxGeometry relative="1" as="geometry">
            <mxPoint x="-430" y="330" as="sourcePoint" />
            <mxPoint x="-430" y="370" as="targetPoint" />
          </mxGeometry>
        </mxCell>
        <mxCell id="yHLSnqsGGGd3KY7ET34i-8" value="詳細資料" style="shape=rectangle;whiteSpace=wrap;html=1;rounded=1;" vertex="1" parent="1">
          <mxGeometry x="-450" y="460" width="120" height="60" as="geometry" />
        </mxCell>
        <mxCell id="yHLSnqsGGGd3KY7ET34i-10" value="最近看過[買家登入後]" style="shape=rectangle;whiteSpace=wrap;html=1;rounded=1;" vertex="1" parent="1">
          <mxGeometry y="260" width="120" height="60" as="geometry" />
        </mxCell>
        <mxCell id="yHLSnqsGGGd3KY7ET34i-11" style="endArrow=block;" edge="1" parent="1" source="yHLSnqsGGGd3KY7ET34i-2" target="yHLSnqsGGGd3KY7ET34i-10">
          <mxGeometry relative="1" as="geometry" />
        </mxCell>
        <mxCell id="yHLSnqsGGGd3KY7ET34i-12" value="商品列表" style="shape=rectangle;whiteSpace=wrap;html=1;rounded=1;" vertex="1" parent="1">
          <mxGeometry y="350" width="120" height="60" as="geometry" />
        </mxCell>
        <mxCell id="yHLSnqsGGGd3KY7ET34i-13" style="endArrow=block;" edge="1" parent="1" source="yHLSnqsGGGd3KY7ET34i-10" target="yHLSnqsGGGd3KY7ET34i-12">
          <mxGeometry relative="1" as="geometry" />
        </mxCell>
        <mxCell id="yHLSnqsGGGd3KY7ET34i-14" value="詳細資料" style="shape=rectangle;whiteSpace=wrap;html=1;rounded=1;" vertex="1" parent="1">
          <mxGeometry y="450" width="120" height="60" as="geometry" />
        </mxCell>
        <mxCell id="yHLSnqsGGGd3KY7ET34i-15" style="endArrow=block;" edge="1" parent="1" source="yHLSnqsGGGd3KY7ET34i-12" target="yHLSnqsGGGd3KY7ET34i-14">
          <mxGeometry relative="1" as="geometry" />
        </mxCell>
        <mxCell id="yHLSnqsGGGd3KY7ET34i-16" value="購物車 [買家登入後 可能改匿名登入 也有 登入後結合]" style="shape=rectangle;whiteSpace=wrap;html=1;rounded=1;" vertex="1" parent="1">
          <mxGeometry x="-150" y="260" width="120" height="60" as="geometry" />
        </mxCell>
        <mxCell id="yHLSnqsGGGd3KY7ET34i-17" style="endArrow=block;" edge="1" parent="1" source="yHLSnqsGGGd3KY7ET34i-2" target="yHLSnqsGGGd3KY7ET34i-16">
          <mxGeometry relative="1" as="geometry" />
        </mxCell>
        <mxCell id="yHLSnqsGGGd3KY7ET34i-18" value="Search" style="shape=rectangle;whiteSpace=wrap;html=1;rounded=1;" vertex="1" parent="1">
          <mxGeometry x="-300" y="260" width="120" height="60" as="geometry" />
        </mxCell>
        <mxCell id="yHLSnqsGGGd3KY7ET34i-19" style="endArrow=block;" edge="1" parent="1" source="yHLSnqsGGGd3KY7ET34i-2" target="yHLSnqsGGGd3KY7ET34i-18">
          <mxGeometry relative="1" as="geometry" />
        </mxCell>
        <mxCell id="yHLSnqsGGGd3KY7ET34i-20" value="搜尋結果" style="shape=rectangle;whiteSpace=wrap;html=1;rounded=1;" vertex="1" parent="1">
          <mxGeometry x="-300" y="370" width="120" height="60" as="geometry" />
        </mxCell>
        <mxCell id="yHLSnqsGGGd3KY7ET34i-21" style="endArrow=block;" edge="1" parent="1" source="yHLSnqsGGGd3KY7ET34i-18" target="yHLSnqsGGGd3KY7ET34i-20">
          <mxGeometry relative="1" as="geometry" />
        </mxCell>
        <mxCell id="yHLSnqsGGGd3KY7ET34i-26" value="篩選功能" style="shape=rectangle;whiteSpace=wrap;html=1;rounded=1;" vertex="1" parent="1">
          <mxGeometry x="-300" y="460" width="120" height="60" as="geometry" />
        </mxCell>
        <mxCell id="yHLSnqsGGGd3KY7ET34i-27" style="endArrow=block;" edge="1" parent="1" source="yHLSnqsGGGd3KY7ET34i-20" target="yHLSnqsGGGd3KY7ET34i-26">
          <mxGeometry relative="1" as="geometry" />
        </mxCell>
        <mxCell id="yHLSnqsGGGd3KY7ET34i-28" value="商品列表" style="shape=rectangle;whiteSpace=wrap;html=1;rounded=1;" vertex="1" parent="1">
          <mxGeometry x="-300" y="540" width="120" height="60" as="geometry" />
        </mxCell>
        <mxCell id="yHLSnqsGGGd3KY7ET34i-29" style="endArrow=block;" edge="1" parent="1" source="yHLSnqsGGGd3KY7ET34i-26" target="yHLSnqsGGGd3KY7ET34i-28">
          <mxGeometry relative="1" as="geometry" />
        </mxCell>
        <mxCell id="yHLSnqsGGGd3KY7ET34i-30" value="詳細資料" style="shape=rectangle;whiteSpace=wrap;html=1;rounded=1;" vertex="1" parent="1">
          <mxGeometry x="-300" y="630" width="120" height="60" as="geometry" />
        </mxCell>
        <mxCell id="yHLSnqsGGGd3KY7ET34i-31" style="endArrow=block;" edge="1" parent="1" source="yHLSnqsGGGd3KY7ET34i-28" target="yHLSnqsGGGd3KY7ET34i-30">
          <mxGeometry relative="1" as="geometry">
            <mxPoint x="-240" y="620" as="targetPoint" />
          </mxGeometry>
        </mxCell>
        <mxCell id="yHLSnqsGGGd3KY7ET34i-32" value="會員中心 [登入後]" style="shape=rectangle;whiteSpace=wrap;html=1;rounded=1;" vertex="1" parent="1">
          <mxGeometry x="400" y="200" width="120" height="60" as="geometry" />
        </mxCell>
        <mxCell id="yHLSnqsGGGd3KY7ET34i-33" style="endArrow=block;" edge="1" parent="1" source="yHLSnqsGGGd3KY7ET34i-2" target="yHLSnqsGGGd3KY7ET34i-32">
          <mxGeometry relative="1" as="geometry" />
        </mxCell>
        <mxCell id="yHLSnqsGGGd3KY7ET34i-34" value="買家頁面" style="shape=rectangle;whiteSpace=wrap;html=1;rounded=1;" vertex="1" parent="1">
          <mxGeometry x="310" y="340" width="120" height="60" as="geometry" />
        </mxCell>
        <mxCell id="yHLSnqsGGGd3KY7ET34i-35" style="endArrow=block;exitX=0.417;exitY=0.967;exitDx=0;exitDy=0;exitPerimeter=0;" edge="1" parent="1" source="yHLSnqsGGGd3KY7ET34i-32" target="yHLSnqsGGGd3KY7ET34i-34">
          <mxGeometry relative="1" as="geometry">
            <mxPoint x="433" y="300" as="sourcePoint" />
          </mxGeometry>
        </mxCell>
        <mxCell id="yHLSnqsGGGd3KY7ET34i-36" value="我的收藏" style="shape=rectangle;whiteSpace=wrap;html=1;rounded=1;" vertex="1" parent="1">
          <mxGeometry x="160" y="450" width="120" height="60" as="geometry" />
        </mxCell>
        <mxCell id="yHLSnqsGGGd3KY7ET34i-37" style="endArrow=block;" edge="1" parent="1" source="yHLSnqsGGGd3KY7ET34i-34" target="yHLSnqsGGGd3KY7ET34i-36">
          <mxGeometry relative="1" as="geometry" />
        </mxCell>
        <mxCell id="yHLSnqsGGGd3KY7ET34i-38" value="查看訂單" style="shape=rectangle;whiteSpace=wrap;html=1;rounded=1;" vertex="1" parent="1">
          <mxGeometry x="160" y="260" width="120" height="60" as="geometry" />
        </mxCell>
        <mxCell id="yHLSnqsGGGd3KY7ET34i-39" style="endArrow=block;" edge="1" parent="1" source="yHLSnqsGGGd3KY7ET34i-34" target="yHLSnqsGGGd3KY7ET34i-38">
          <mxGeometry relative="1" as="geometry" />
        </mxCell>
        <mxCell id="yHLSnqsGGGd3KY7ET34i-40" value="編輯資料" style="shape=rectangle;whiteSpace=wrap;html=1;rounded=1;" vertex="1" parent="1">
          <mxGeometry x="160" y="350" width="120" height="60" as="geometry" />
        </mxCell>
        <mxCell id="yHLSnqsGGGd3KY7ET34i-41" style="endArrow=block;" edge="1" parent="1" source="yHLSnqsGGGd3KY7ET34i-34" target="yHLSnqsGGGd3KY7ET34i-40">
          <mxGeometry relative="1" as="geometry" />
        </mxCell>
        <mxCell id="yHLSnqsGGGd3KY7ET34i-42" value="賣家頁面" style="shape=rectangle;whiteSpace=wrap;html=1;rounded=1;" vertex="1" parent="1">
          <mxGeometry x="500" y="340" width="120" height="60" as="geometry" />
        </mxCell>
        <mxCell id="yHLSnqsGGGd3KY7ET34i-43" style="endArrow=block;" edge="1" parent="1" source="yHLSnqsGGGd3KY7ET34i-32" target="yHLSnqsGGGd3KY7ET34i-42">
          <mxGeometry relative="1" as="geometry">
            <mxPoint x="490" y="300" as="sourcePoint" />
          </mxGeometry>
        </mxCell>
        <mxCell id="yHLSnqsGGGd3KY7ET34i-44" value="上架商品" style="shape=rectangle;whiteSpace=wrap;html=1;rounded=1;" vertex="1" parent="1">
          <mxGeometry x="810" y="250" width="120" height="60" as="geometry" />
        </mxCell>
        <mxCell id="yHLSnqsGGGd3KY7ET34i-45" style="endArrow=block;exitX=1;exitY=0.5;exitDx=0;exitDy=0;entryX=0;entryY=0.5;entryDx=0;entryDy=0;" edge="1" parent="1" source="yHLSnqsGGGd3KY7ET34i-46" target="yHLSnqsGGGd3KY7ET34i-44">
          <mxGeometry relative="1" as="geometry">
            <mxPoint x="810" y="280" as="targetPoint" />
          </mxGeometry>
        </mxCell>
        <mxCell id="yHLSnqsGGGd3KY7ET34i-46" value="查看已上架商品" style="shape=rectangle;whiteSpace=wrap;html=1;rounded=1;" vertex="1" parent="1">
          <mxGeometry x="660" y="250" width="120" height="60" as="geometry" />
        </mxCell>
        <mxCell id="yHLSnqsGGGd3KY7ET34i-47" style="endArrow=block;" edge="1" parent="1" source="yHLSnqsGGGd3KY7ET34i-42" target="yHLSnqsGGGd3KY7ET34i-46">
          <mxGeometry relative="1" as="geometry" />
        </mxCell>
        <mxCell id="yHLSnqsGGGd3KY7ET34i-48" value="查看訂單" style="shape=rectangle;whiteSpace=wrap;html=1;rounded=1;" vertex="1" parent="1">
          <mxGeometry x="660" y="450" width="120" height="60" as="geometry" />
        </mxCell>
        <mxCell id="yHLSnqsGGGd3KY7ET34i-49" style="endArrow=block;" edge="1" parent="1" source="yHLSnqsGGGd3KY7ET34i-42" target="yHLSnqsGGGd3KY7ET34i-48">
          <mxGeometry relative="1" as="geometry" />
        </mxCell>
        <mxCell id="yHLSnqsGGGd3KY7ET34i-50" value="編輯資料" style="shape=rectangle;whiteSpace=wrap;html=1;rounded=1;" vertex="1" parent="1">
          <mxGeometry x="660" y="350" width="120" height="60" as="geometry" />
        </mxCell>
        <mxCell id="yHLSnqsGGGd3KY7ET34i-51" style="endArrow=block;" edge="1" parent="1" source="yHLSnqsGGGd3KY7ET34i-42" target="yHLSnqsGGGd3KY7ET34i-50">
          <mxGeometry relative="1" as="geometry" />
        </mxCell>
        <mxCell id="yHLSnqsGGGd3KY7ET34i-52" value="通知中心" style="shape=rectangle;whiteSpace=wrap;html=1;rounded=1;" vertex="1" parent="1">
          <mxGeometry x="310" y="450" width="120" height="60" as="geometry" />
        </mxCell>
        <mxCell id="yHLSnqsGGGd3KY7ET34i-53" style="endArrow=block;exitX=0.5;exitY=1;exitDx=0;exitDy=0;" edge="1" parent="1" source="yHLSnqsGGGd3KY7ET34i-34" target="yHLSnqsGGGd3KY7ET34i-52">
          <mxGeometry relative="1" as="geometry" />
        </mxCell>
        <mxCell id="yHLSnqsGGGd3KY7ET34i-54" value="登入 / 註冊" style="shape=rectangle;whiteSpace=wrap;html=1;rounded=1;" vertex="1" parent="1">
          <mxGeometry x="400" y="100" width="120" height="60" as="geometry" />
        </mxCell>
        <mxCell id="yHLSnqsGGGd3KY7ET34i-55" style="endArrow=block;" edge="1" parent="1" source="yHLSnqsGGGd3KY7ET34i-2" target="yHLSnqsGGGd3KY7ET34i-54">
          <mxGeometry relative="1" as="geometry" />
        </mxCell>
        <mxCell id="yHLSnqsGGGd3KY7ET34i-56" value="推薦區塊" style="shape=rectangle;whiteSpace=wrap;html=1;rounded=1;" vertex="1" parent="1">
          <mxGeometry x="400" y="20" width="120" height="60" as="geometry" />
        </mxCell>
        <mxCell id="yHLSnqsGGGd3KY7ET34i-57" style="endArrow=block;" edge="1" parent="1" source="yHLSnqsGGGd3KY7ET34i-1" target="yHLSnqsGGGd3KY7ET34i-56">
          <mxGeometry relative="1" as="geometry" />
        </mxCell>
        <mxCell id="yHLSnqsGGGd3KY7ET34i-58" value="員工後台" style="shape=rectangle;whiteSpace=wrap;html=1;rounded=1;" vertex="1" parent="1">
          <mxGeometry x="1790" width="120" height="60" as="geometry" />
        </mxCell>
        <mxCell id="yHLSnqsGGGd3KY7ET34i-59" value="Dashboard" style="shape=rectangle;whiteSpace=wrap;html=1;rounded=1;" vertex="1" parent="1">
          <mxGeometry x="1790" y="90" width="120" height="60" as="geometry" />
        </mxCell>
        <mxCell id="yHLSnqsGGGd3KY7ET34i-60" style="endArrow=block;" edge="1" parent="1" source="yHLSnqsGGGd3KY7ET34i-58" target="yHLSnqsGGGd3KY7ET34i-59">
          <mxGeometry relative="1" as="geometry" />
        </mxCell>
        <mxCell id="yHLSnqsGGGd3KY7ET34i-61" value="系統概況" style="shape=rectangle;whiteSpace=wrap;html=1;rounded=1;" vertex="1" parent="1">
          <mxGeometry x="1510" y="160" width="120" height="60" as="geometry" />
        </mxCell>
        <mxCell id="yHLSnqsGGGd3KY7ET34i-62" style="endArrow=block;" edge="1" parent="1" source="yHLSnqsGGGd3KY7ET34i-59" target="yHLSnqsGGGd3KY7ET34i-61">
          <mxGeometry relative="1" as="geometry" />
        </mxCell>
        <mxCell id="yHLSnqsGGGd3KY7ET34i-63" value="通知中心" style="shape=rectangle;whiteSpace=wrap;html=1;rounded=1;" vertex="1" parent="1">
          <mxGeometry x="1510" y="80" width="120" height="60" as="geometry" />
        </mxCell>
        <mxCell id="yHLSnqsGGGd3KY7ET34i-64" style="endArrow=block;" edge="1" parent="1" source="yHLSnqsGGGd3KY7ET34i-59" target="yHLSnqsGGGd3KY7ET34i-63">
          <mxGeometry relative="1" as="geometry" />
        </mxCell>
        <mxCell id="yHLSnqsGGGd3KY7ET34i-65" value="商品管理" style="shape=rectangle;whiteSpace=wrap;html=1;rounded=1;" vertex="1" parent="1">
          <mxGeometry x="1510" y="230" width="120" height="60" as="geometry" />
        </mxCell>
        <mxCell id="yHLSnqsGGGd3KY7ET34i-66" style="endArrow=block;" edge="1" parent="1" source="yHLSnqsGGGd3KY7ET34i-59" target="yHLSnqsGGGd3KY7ET34i-65">
          <mxGeometry relative="1" as="geometry" />
        </mxCell>
        <mxCell id="yHLSnqsGGGd3KY7ET34i-67" value="商品列表" style="shape=rectangle;whiteSpace=wrap;html=1;rounded=1;" vertex="1" parent="1">
          <mxGeometry x="1150" y="120" width="120" height="60" as="geometry" />
        </mxCell>
        <mxCell id="yHLSnqsGGGd3KY7ET34i-68" style="endArrow=block;" edge="1" parent="1" source="yHLSnqsGGGd3KY7ET34i-65" target="yHLSnqsGGGd3KY7ET34i-67">
          <mxGeometry relative="1" as="geometry" />
        </mxCell>
        <mxCell id="yHLSnqsGGGd3KY7ET34i-69" value="新增商品" style="shape=rectangle;whiteSpace=wrap;html=1;rounded=1;" vertex="1" parent="1">
          <mxGeometry x="1150" y="440" width="120" height="60" as="geometry" />
        </mxCell>
        <mxCell id="yHLSnqsGGGd3KY7ET34i-70" style="endArrow=block;" edge="1" parent="1" source="yHLSnqsGGGd3KY7ET34i-65" target="yHLSnqsGGGd3KY7ET34i-69">
          <mxGeometry relative="1" as="geometry" />
        </mxCell>
        <mxCell id="yHLSnqsGGGd3KY7ET34i-71" value="編輯商品" style="shape=rectangle;whiteSpace=wrap;html=1;rounded=1;" vertex="1" parent="1">
          <mxGeometry x="1150" y="260" width="120" height="60" as="geometry" />
        </mxCell>
        <mxCell id="yHLSnqsGGGd3KY7ET34i-72" style="endArrow=block;" edge="1" parent="1" source="yHLSnqsGGGd3KY7ET34i-65" target="yHLSnqsGGGd3KY7ET34i-71">
          <mxGeometry relative="1" as="geometry" />
        </mxCell>
        <mxCell id="yHLSnqsGGGd3KY7ET34i-73" value="商品分類管理" style="shape=rectangle;whiteSpace=wrap;html=1;rounded=1;" vertex="1" parent="1">
          <mxGeometry x="1150" y="190" width="120" height="60" as="geometry" />
        </mxCell>
        <mxCell id="yHLSnqsGGGd3KY7ET34i-74" style="endArrow=block;" edge="1" parent="1" source="yHLSnqsGGGd3KY7ET34i-65" target="yHLSnqsGGGd3KY7ET34i-73">
          <mxGeometry relative="1" as="geometry" />
        </mxCell>
        <mxCell id="yHLSnqsGGGd3KY7ET34i-75" value="庫存管理" style="shape=rectangle;whiteSpace=wrap;html=1;rounded=1;" vertex="1" parent="1">
          <mxGeometry x="1150" y="330" width="120" height="60" as="geometry" />
        </mxCell>
        <mxCell id="yHLSnqsGGGd3KY7ET34i-76" style="endArrow=block;" edge="1" parent="1" source="yHLSnqsGGGd3KY7ET34i-65" target="yHLSnqsGGGd3KY7ET34i-75">
          <mxGeometry relative="1" as="geometry" />
        </mxCell>
        <mxCell id="yHLSnqsGGGd3KY7ET34i-77" value="訂單管理" style="shape=rectangle;whiteSpace=wrap;html=1;rounded=1;" vertex="1" parent="1">
          <mxGeometry x="1510" y="330" width="120" height="60" as="geometry" />
        </mxCell>
        <mxCell id="yHLSnqsGGGd3KY7ET34i-78" style="endArrow=block;" edge="1" parent="1" source="yHLSnqsGGGd3KY7ET34i-59" target="yHLSnqsGGGd3KY7ET34i-77">
          <mxGeometry relative="1" as="geometry" />
        </mxCell>
        <mxCell id="yHLSnqsGGGd3KY7ET34i-79" value="訂單列表" style="shape=rectangle;whiteSpace=wrap;html=1;rounded=1;" vertex="1" parent="1">
          <mxGeometry x="1300" y="440" width="120" height="60" as="geometry" />
        </mxCell>
        <mxCell id="yHLSnqsGGGd3KY7ET34i-80" style="endArrow=block;" edge="1" parent="1" source="yHLSnqsGGGd3KY7ET34i-77" target="yHLSnqsGGGd3KY7ET34i-79">
          <mxGeometry relative="1" as="geometry" />
        </mxCell>
        <mxCell id="yHLSnqsGGGd3KY7ET34i-81" value="訂單詳情" style="shape=rectangle;whiteSpace=wrap;html=1;rounded=1;" vertex="1" parent="1">
          <mxGeometry x="1590" y="440" width="120" height="60" as="geometry" />
        </mxCell>
        <mxCell id="yHLSnqsGGGd3KY7ET34i-82" style="endArrow=block;" edge="1" parent="1" source="yHLSnqsGGGd3KY7ET34i-77" target="yHLSnqsGGGd3KY7ET34i-81">
          <mxGeometry relative="1" as="geometry" />
        </mxCell>
        <mxCell id="yHLSnqsGGGd3KY7ET34i-83" value="出貨處理" style="shape=rectangle;whiteSpace=wrap;html=1;rounded=1;" vertex="1" parent="1">
          <mxGeometry x="1440" y="440" width="120" height="60" as="geometry" />
        </mxCell>
        <mxCell id="yHLSnqsGGGd3KY7ET34i-84" style="endArrow=block;" edge="1" parent="1" source="yHLSnqsGGGd3KY7ET34i-77" target="yHLSnqsGGGd3KY7ET34i-83">
          <mxGeometry relative="1" as="geometry" />
        </mxCell>
        <mxCell id="yHLSnqsGGGd3KY7ET34i-85" value="用戶管理" style="shape=rectangle;whiteSpace=wrap;html=1;rounded=1;" vertex="1" parent="1">
          <mxGeometry x="2050" y="90" width="120" height="60" as="geometry" />
        </mxCell>
        <mxCell id="yHLSnqsGGGd3KY7ET34i-86" style="endArrow=block;" edge="1" parent="1" source="yHLSnqsGGGd3KY7ET34i-59" target="yHLSnqsGGGd3KY7ET34i-85">
          <mxGeometry relative="1" as="geometry" />
        </mxCell>
        <mxCell id="yHLSnqsGGGd3KY7ET34i-87" value="會員列表" style="shape=rectangle;whiteSpace=wrap;html=1;rounded=1;" vertex="1" parent="1">
          <mxGeometry x="2340" y="90" width="120" height="60" as="geometry" />
        </mxCell>
        <mxCell id="yHLSnqsGGGd3KY7ET34i-88" style="endArrow=block;" edge="1" parent="1" source="yHLSnqsGGGd3KY7ET34i-85" target="yHLSnqsGGGd3KY7ET34i-87">
          <mxGeometry relative="1" as="geometry" />
        </mxCell>
        <mxCell id="yHLSnqsGGGd3KY7ET34i-89" value="權限設定" style="shape=rectangle;whiteSpace=wrap;html=1;rounded=1;" vertex="1" parent="1">
          <mxGeometry x="2340" y="230" width="120" height="60" as="geometry" />
        </mxCell>
        <mxCell id="yHLSnqsGGGd3KY7ET34i-90" style="endArrow=block;" edge="1" parent="1" source="yHLSnqsGGGd3KY7ET34i-85" target="yHLSnqsGGGd3KY7ET34i-89">
          <mxGeometry relative="1" as="geometry" />
        </mxCell>
        <mxCell id="yHLSnqsGGGd3KY7ET34i-91" value="停用帳號" style="shape=rectangle;whiteSpace=wrap;html=1;rounded=1;" vertex="1" parent="1">
          <mxGeometry x="2340" y="160" width="120" height="60" as="geometry" />
        </mxCell>
        <mxCell id="yHLSnqsGGGd3KY7ET34i-92" style="endArrow=block;" edge="1" parent="1" source="yHLSnqsGGGd3KY7ET34i-85" target="yHLSnqsGGGd3KY7ET34i-91">
          <mxGeometry relative="1" as="geometry" />
        </mxCell>
        <mxCell id="yHLSnqsGGGd3KY7ET34i-93" value="推薦系統管理" style="shape=rectangle;whiteSpace=wrap;html=1;rounded=1;" vertex="1" parent="1">
          <mxGeometry x="1870" y="310" width="120" height="60" as="geometry" />
        </mxCell>
        <mxCell id="yHLSnqsGGGd3KY7ET34i-94" style="endArrow=block;" edge="1" parent="1" source="yHLSnqsGGGd3KY7ET34i-59" target="yHLSnqsGGGd3KY7ET34i-93">
          <mxGeometry relative="1" as="geometry" />
        </mxCell>
        <mxCell id="yHLSnqsGGGd3KY7ET34i-95" value="設定推薦規則" style="shape=rectangle;whiteSpace=wrap;html=1;rounded=1;" vertex="1" parent="1">
          <mxGeometry x="1750" y="440" width="120" height="60" as="geometry" />
        </mxCell>
        <mxCell id="yHLSnqsGGGd3KY7ET34i-96" style="endArrow=block;" edge="1" parent="1" source="yHLSnqsGGGd3KY7ET34i-93" target="yHLSnqsGGGd3KY7ET34i-95">
          <mxGeometry relative="1" as="geometry" />
        </mxCell>
        <mxCell id="yHLSnqsGGGd3KY7ET34i-97" value="編輯推薦內容" style="shape=rectangle;whiteSpace=wrap;html=1;rounded=1;" vertex="1" parent="1">
          <mxGeometry x="1890" y="440" width="120" height="60" as="geometry" />
        </mxCell>
        <mxCell id="yHLSnqsGGGd3KY7ET34i-98" style="endArrow=block;" edge="1" parent="1" source="yHLSnqsGGGd3KY7ET34i-93" target="yHLSnqsGGGd3KY7ET34i-97">
          <mxGeometry relative="1" as="geometry" />
        </mxCell>
        <mxCell id="yHLSnqsGGGd3KY7ET34i-99" value="搜尋與瀏覽紀錄" style="shape=rectangle;whiteSpace=wrap;html=1;rounded=1;" vertex="1" parent="1">
          <mxGeometry x="2050" y="260" width="120" height="60" as="geometry" />
        </mxCell>
        <mxCell id="yHLSnqsGGGd3KY7ET34i-100" style="endArrow=block;" edge="1" parent="1" source="yHLSnqsGGGd3KY7ET34i-59" target="yHLSnqsGGGd3KY7ET34i-99">
          <mxGeometry relative="1" as="geometry" />
        </mxCell>
        <mxCell id="yHLSnqsGGGd3KY7ET34i-101" value="搜尋紀錄查詢" style="shape=rectangle;whiteSpace=wrap;html=1;rounded=1;" vertex="1" parent="1">
          <mxGeometry x="2060" y="440" width="120" height="60" as="geometry" />
        </mxCell>
        <mxCell id="yHLSnqsGGGd3KY7ET34i-102" style="endArrow=block;" edge="1" parent="1" source="yHLSnqsGGGd3KY7ET34i-99" target="yHLSnqsGGGd3KY7ET34i-101">
          <mxGeometry relative="1" as="geometry" />
        </mxCell>
        <mxCell id="yHLSnqsGGGd3KY7ET34i-103" value="最近瀏覽商品紀錄" style="shape=rectangle;whiteSpace=wrap;html=1;rounded=1;" vertex="1" parent="1">
          <mxGeometry x="2200" y="440" width="120" height="60" as="geometry" />
        </mxCell>
        <mxCell id="yHLSnqsGGGd3KY7ET34i-104" style="endArrow=block;" edge="1" parent="1" source="yHLSnqsGGGd3KY7ET34i-99" target="yHLSnqsGGGd3KY7ET34i-103">
          <mxGeometry relative="1" as="geometry" />
        </mxCell>
        <mxCell id="yHLSnqsGGGd3KY7ET34i-105" value="帳號管理" style="shape=rectangle;whiteSpace=wrap;html=1;rounded=1;" vertex="1" parent="1">
          <mxGeometry x="2050" y="170" width="120" height="60" as="geometry" />
        </mxCell>
        <mxCell id="yHLSnqsGGGd3KY7ET34i-106" style="endArrow=block;" edge="1" parent="1" source="yHLSnqsGGGd3KY7ET34i-59" target="yHLSnqsGGGd3KY7ET34i-105">
          <mxGeometry relative="1" as="geometry" />
        </mxCell>
        <mxCell id="yHLSnqsGGGd3KY7ET34i-107" value="修改密碼" style="shape=rectangle;whiteSpace=wrap;html=1;rounded=1;" vertex="1" parent="1">
          <mxGeometry x="2340" y="300" width="120" height="60" as="geometry" />
        </mxCell>
        <mxCell id="yHLSnqsGGGd3KY7ET34i-108" style="endArrow=block;" edge="1" parent="1" source="yHLSnqsGGGd3KY7ET34i-105" target="yHLSnqsGGGd3KY7ET34i-107">
          <mxGeometry relative="1" as="geometry" />
        </mxCell>
        <mxCell id="yHLSnqsGGGd3KY7ET34i-109" value="登出" style="shape=rectangle;whiteSpace=wrap;html=1;rounded=1;" vertex="1" parent="1">
          <mxGeometry x="2340" y="380" width="120" height="60" as="geometry" />
        </mxCell>
        <mxCell id="yHLSnqsGGGd3KY7ET34i-110" style="endArrow=block;" edge="1" parent="1" source="yHLSnqsGGGd3KY7ET34i-105" target="yHLSnqsGGGd3KY7ET34i-109">
          <mxGeometry relative="1" as="geometry" />
        </mxCell>
        <mxCell id="yHLSnqsGGGd3KY7ET34i-113" value="通知中心" style="shape=rectangle;whiteSpace=wrap;html=1;rounded=1;" vertex="1" parent="1">
          <mxGeometry x="500" y="450" width="120" height="60" as="geometry" />
        </mxCell>
        <mxCell id="yHLSnqsGGGd3KY7ET34i-114" style="endArrow=block;exitX=0.5;exitY=1;exitDx=0;exitDy=0;" edge="1" parent="1" source="yHLSnqsGGGd3KY7ET34i-42" target="yHLSnqsGGGd3KY7ET34i-113">
          <mxGeometry relative="1" as="geometry">
            <mxPoint x="570" y="410" as="sourcePoint" />
            <mxPoint x="395" y="660" as="targetPoint" />
          </mxGeometry>
        </mxCell>
      </root>
    </mxGraphModel>
  </diagram>
</mxfile>
